<svg xmlns="http://www.w3.org/2000/svg" width="16" height="16" viewBox="0 0 16 16" fill="none">
  <g fill="none" fill-rule="evenodd">
    <polygon fill="#9AA7B0" fill-opacity=".7" points="1 16 16 16 16 9 1 9"/>
    <polygon fill="#9AA7B0" fill-opacity=".8" points="7 1 3 5 7 5"/>
    <polygon fill="#9AA7B0" fill-opacity=".8" points="8 1 8 6 3 6 3 8 13 8 13 1"/>
    <path fill="#231F20" fill-opacity="0.7" d="M2 12.501C2 11 2.931 10 4.256 10C5.20239 10 5.55 10.311 5.969 10.753L5.4267 11.4271C5.0767 11.0681 4.75 11 4.25 11C3.418 11 3 11.7379 3 12.487C3 13.2361 3.412 14 4.25 14C4.787 14 5.0517 13.8934 5.4267 13.5064L6 14.144C5.544 14.669 5.19733 15 4.225 15C2.949 15 2 14.002 2 12.501Z" transform="translate(-0.5,0)"/>
    <polygon fill="#231F20" fill-opacity=".7" points="0.25 0 1.25 5 2 5 2.5 2 3 5 3.75 5 4.75 0 3.75 0 3.25 2.75 3 0 2 0 1.75 2.75 1.25 0" transform="translate(6 10)" />
    <polygon fill="#231F20" fill-opacity=".7" points="2 1 .5 1 .5 0 4.5 0 4.5 1 3 1 3 5 2 5" transform="translate(11 10)" />
  </g>
</svg>
