<!-- Copyright 2000-2023 JetBrains s.r.o. and contributors. Use of this source code is governed by the Apache 2.0 license. -->
<!-- See: https://intellij-icons.jetbrains.design/#AopCommonIcons-icons-expui-aroundAdvice -->
<svg width="16" height="16" viewBox="0 0 16 16" fill="none" xmlns="http://www.w3.org/2000/svg">
  <path d="M12.9497 3.05025C15.6834 5.78392 15.6834 10.2161 12.9497 12.9497C10.2161 15.6834 5.78391 15.6834 3.05024 12.9497C0.316572 10.2161 0.316572 5.78392 3.05024 3.05025C5.78391 0.316582 10.2161 0.316583 12.9497 3.05025Z" transform="scale(0.75)" fill="#25324D"/>
  <path d="M13.917 9C13.441 11.8377 10.973 14 8 14C5.02701 14 2.55904 11.8377 2.08296 9H1.07089C1.55612 12.3923 4.47353 15 8 15C11.5265 15 14.4439 12.3923 14.9291 9H13.917Z" transform="scale(0.75)" fill="#6C707E"/>
  <path d="M2.08296 7C2.55904 4.16229 5.02701 2 8 2C10.973 2 13.441 4.16229 13.917 7H14.9291C14.4439 3.60771 11.5265 1 8 1C4.47353 1 1.55612 3.60771 1.07089 7H2.08296Z" transform="scale(0.75)" fill="#6C707E"/>
  <path d="M1,1 L1,4 L1.649,4 C2.578,4 3,3.493 3,2.515 L3,2.5 C3,1.522 2.578,1 1.649,1 L1,1 Z M0,0 L1.649,0 C3.04,0 4,1.093 4,2.5 C4,3.921 3.04,5 1.649,5 L0,5 L0,0 Z" transform="translate(4.5 3.725) scale(0.9)" fill="#548AF7"/>
</svg>

