<!-- Copyright 2000-2023 JetBrains s.r.o. and contributors. Use of this source code is governed by the Apache 2.0 license. -->
<!-- See: https://intellij-icons.jetbrains.design/#AopCommonIcons-icons-expui-aroundAdvice -->
<svg xmlns="http://www.w3.org/2000/svg" width="14" height="14" viewBox="0 0 16 16" fill="none">
  <path d="M12.9497 3.05025C15.6834 5.78392 15.6834 10.2161 12.9497 12.9497C10.2161 15.6834 5.78391 15.6834 3.05024 12.9497C0.316572 10.2161 0.316572 5.78392 3.05024 3.05025C5.78391 0.316582 10.2161 0.316583 12.9497 3.05025Z" fill="#E7EFFD"/>
  <path d="M13.917 9C13.441 11.8377 10.973 14 8 14C5.02701 14 2.55904 11.8377 2.08296 9H1.07089C1.55612 12.3923 4.47353 15 8 15C11.5265 15 14.4439 12.3923 14.9291 9H13.917Z" fill="#6C707E"/>
  <path d="M2.08296 7C2.55904 4.16229 5.02701 2 8 2C10.973 2 13.441 4.16229 13.917 7H14.9291C14.4439 3.60771 11.5265 1 8 1C4.47353 1 1.55612 3.60771 1.07089 7H2.08296Z" fill="#6C707E"/>
  <path d="M1,1 L1,4 L1.649,4 C2.578,4 3,3.493 3,2.515 L3,2.5 C3,1.522 2.578,1 1.649,1 L1,1 Z M0,0 L1.649,0 C3.04,0 4,1.093 4,2.5 C4,3.921 3.04,5 1.649,5 L0,5 L0,0 Z" transform="translate(6 5) scale(1.2)" fill="#3574F0"/>

  <path d="M11.5618 10.1475C11.3665 10.3428 11.0499 10.3428 10.8547 10.1475C10.6594 9.95229 10.6594 9.6357 10.8547 9.44044L11.5322 8.76291C12.5519 7.74327 14.2078 7.74606 15.2309 8.76913C16.2539 9.7922 16.2567 11.4481 15.2371 12.4678L14.5596 13.1453C14.3643 13.3406 14.0477 13.3406 13.8525 13.1453C13.6572 12.9501 13.6572 12.6335 13.8525 12.4382L14.53 11.7607C15.1569 11.1338 15.1586 10.111 14.5238 9.47624C13.889 8.84144 12.8662 8.84315 12.2393 9.47001L11.5618 10.1475Z" transform="scale(0.8) translate(4 4)" fill="#6C707E"/>
  <path d="M10.1476 10.8547C10.3428 11.0499 10.3428 11.3665 10.1476 11.5618L9.47001 12.2393C8.84315 12.8662 8.84144 13.889 9.47624 14.5238C10.111 15.1586 11.1338 15.1569 11.7607 14.53L12.4382 13.8524C12.6335 13.6572 12.9501 13.6572 13.1453 13.8524C13.3406 14.0477 13.3406 14.3643 13.1453 14.5595L12.4678 15.2371C11.4481 16.2567 9.7922 16.2539 8.76913 15.2309C7.74606 14.2078 7.74327 12.5519 8.76291 11.5322L9.44047 10.8547C9.63573 10.6594 9.95232 10.6594 10.1476 10.8547Z" transform="scale(0.8) translate(4 4)" fill="#6C707E"/>
  <path d="M13.8536 10.8536C14.0488 10.6583 14.0488 10.3417 13.8536 10.1464C13.6583 9.95118 13.3417 9.95118 13.1464 10.1464L10.1464 13.1464C9.95118 13.3417 9.95118 13.6583 10.1464 13.8536C10.3417 14.0488 10.6583 14.0488 10.8536 13.8536L13.8536 10.8536Z" transform="scale(0.8) translate(4 4)" fill="#6C707E"/>
</svg>
