<svg xmlns="http://www.w3.org/2000/svg" width="16" height="16" viewBox="0 0 16 16">
  <g fill="none" fill-rule="evenodd">
    <path fill="#B99BF8" fill-opacity=".6" d="M15,8 C15,11.866 11.866,15 8,15 C4.134,15 1,11.866 1,8 C1,4.134 4.134,1 8,1 C11.866,1 15,4.134 15,8"/>
    <path fill="#231F20" fill-opacity=".7" d="M2,1 C1.292,1 1,1.54 1,2.5 C1,3.46 1.285,4 2,4 C2.715,4 3,3.446 3,2.5 C3,1.554 2.708,1 2,1 Z M2,-0.0003 C3.207,-0.0003 4,1.1177 4,2.4997 C4,3.8817 3.206,4.9997 2,4.9997 C0.794,4.9997 2.84217094e-14,3.881 2.84217094e-14,2.5 C2.84217094e-14,0.958803662 0.793,-0.0003 2,-0.0003 Z" transform="translate(5.2 4.5) scale(1.4)"/>
  </g>
</svg>
