<svg xmlns="http://www.w3.org/2000/svg" width="16" height="16" viewBox="0 0 16 16">
  <g fill="none" fill-rule="evenodd">
    <path fill="#B99BF8" fill-opacity=".6" d="M8.0005,1 C4.1345,1 1.0005,4.134 1.0005,8 C1.0005,9.564 1.5205,11.005 2.3875,12.17 C3.0515,12.424 3.5765,12.949 3.8295,13.612 C4.9955,14.48 6.4355,15 8.0005,15 C11.8655,15 15.0005,11.866 15.0005,8 C15.0005,4.134 11.8655,1 8.0005,1"/>
    <path fill="#62B543" d="M3.0005,14.5 C3.0005,15.328 2.3285,16 1.5005,16 C0.6715,16 0.0005,15.328 0.0005,14.5 C0.0005,13.672 0.6715,13 1.5005,13 C2.3285,13 3.0005,13.672 3.0005,14.5"/>
    <polygon fill="#231F20" fill-opacity=".7" points="0 0 .936 0 2.5 2 3.979 0 5 0 5 5 4 5 4 1.7 2.5 3.5 1 1.7 1 5 0 5" transform="translate(5.5 5.5)"/>
  </g>
</svg>
