<svg xmlns="http://www.w3.org/2000/svg" width="14" height="14" viewBox="0 0 16 16">
  <g fill="none" fill-rule="evenodd">
    <polygon fill-opacity=".8" points="7 1 3 5 7 5" fill="#9AA7B0"/>
    <polygon fill-opacity=".8" points="8 1 8 6 3 6 3 15 13 15 13 1" fill="#9AA7B0"/>

    <path d="M12.7978 10.3746L11.9398 11.2327L11.2327 10.5255L12.0907 9.66754C12.9829 8.77536 14.4318 8.7778 15.327 9.67299C16.2222 10.5682 16.2246 12.0171 15.3325 12.9093L14.4745 13.7673L13.7673 13.0602L14.6254 12.2022C15.1248 11.7028 15.1268 10.887 14.6199 10.3801C14.113 9.87319 13.2972 9.87524 12.7978 10.3746Z" fill="#9AA7B0"/>
    <path d="M10.5256 11.2327L11.2327 11.9398L10.3746 12.7978C9.87524 13.2972 9.87319 14.113 10.3801 14.6199C10.887 15.1268 11.7028 15.1248 12.2022 14.6254L13.0602 13.7673L13.7673 14.4744L12.9093 15.3325C12.0171 16.2246 10.5682 16.2222 9.67299 15.327C8.7778 14.4318 8.77536 12.9829 9.66754 12.0907L10.5256 11.2327Z" fill="#9AA7B0"/>
    <path d="M11.8536 13.8536L13.8536 11.8536L13.1465 11.1465L11.1465 13.1465L11.8536 13.8536Z" fill="#9AA7B0"/>
  </g>
</svg>
