<svg xmlns="http://www.w3.org/2000/svg" width="14" height="14" viewBox="0 0 16 16">
  <g fill="none" fill-rule="evenodd">
    <path fill="#40B6E0" fill-opacity=".6" d="M15,8 C15,11.866 11.866,15 8,15 C4.134,15 1,11.866 1,8 C1,4.134 4.134,1 8,1 C11.866,1 15,4.134 15,8"/>
    <path fill="#231F20" fill-opacity=".7" d="M1,1 L1,4 L1.649,4 C2.578,4 3,3.493 3,2.515 L3,2.5 C3,1.522 2.578,1 1.649,1 L1,1 Z M0,0 L1.649,0 C3.04,0 4,1.093 4,2.5 C4,3.921 3.04,5 1.649,5 L0,5 L0,0 Z" transform="translate(6 5) scale(1.2)"/>

    <path d="M12.7978 10.3746L11.9398 11.2327L11.2327 10.5255L12.0907 9.66754C12.9829 8.77536 14.4318 8.7778 15.327 9.67299C16.2222 10.5682 16.2246 12.0171 15.3325 12.9093L14.4745 13.7673L13.7673 13.0602L14.6254 12.2022C15.1248 11.7028 15.1268 10.887 14.6199 10.3801C14.113 9.87319 13.2972 9.87524 12.7978 10.3746Z" fill="#9AA7B0"/>
    <path d="M10.5256 11.2327L11.2327 11.9398L10.3746 12.7978C9.87524 13.2972 9.87319 14.113 10.3801 14.6199C10.887 15.1268 11.7028 15.1248 12.2022 14.6254L13.0602 13.7673L13.7673 14.4744L12.9093 15.3325C12.0171 16.2246 10.5682 16.2222 9.67299 15.327C8.7778 14.4318 8.77536 12.9829 9.66754 12.0907L10.5256 11.2327Z" fill="#9AA7B0"/>
    <path d="M11.8536 13.8536L13.8536 11.8536L13.1465 11.1465L11.1465 13.1465L11.8536 13.8536Z" fill="#9AA7B0"/>
  </g>
</svg>
