<svg xmlns="http://www.w3.org/2000/svg" width="16" height="16" viewBox="0 0 16 16" fill="none">
  <!-- circle -->
  <path fill="#25324D" d="M1 8C1 4.13401 4.13401 1 8 1V1C11.866 1 15 4.13401 15 8V8C15 11.866 11.866 15 8 15V15C4.13401 15 1 11.866 1 8V8Z"/>
  <path fill="#548AF7" fill-rule="evenodd" clip-rule="evenodd" d="M2 8C2 11.3137 4.68629 14 8 14C11.3137 14 14 11.3137 14 8C14 4.68629 11.3137 2 8 2C4.68629 2 2 4.68629 2 8ZM8 1C4.13401 1 1 4.13401 1 8C1 11.866 4.13401 15 8 15C11.866 15 15 11.866 15 8C15 4.13401 11.866 1 8 1Z"/>
  <!-- E -->
  <path fill="#548AF7" d="M8.01813 11.62C7.46813 11.62 6.97979 11.5033 6.55312 11.27C6.12646 11.0333 5.79479 10.7033 5.55813 10.28C5.32146 9.85667 5.20312 9.37333 5.20312 8.83V4.5H6.21812V8.825C6.21812 9.19167 6.29312 9.51833 6.44313 9.805C6.59312 10.0917 6.80313 10.3133 7.07313 10.47C7.34646 10.6267 7.66146 10.705 8.01813 10.705C8.36813 10.705 8.67479 10.6267 8.93813 10.47C9.20479 10.31 9.41146 10.0883 9.55812 9.805C9.70479 9.51833 9.77812 9.19167 9.77812 8.825V4.5H10.7931V8.83C10.7931 9.37333 10.6748 9.85667 10.4381 10.28C10.2048 10.7033 9.87813 11.0333 9.45813 11.27C9.04146 11.5033 8.56146 11.62 8.01813 11.62Z"/>
</svg>
