<svg xmlns="http://www.w3.org/2000/svg" width="16" height="16" viewBox="0 0 16 16" fill="none">
  <circle cx="8" cy="8" r="6.5" fill="#25324D" stroke="#548AF7"/>
  <path d="M2,1 C1.292,1 1,1.54 1,2.5 C1,3.46 1.285,4 2,4 C2.715,4 3,3.446 3,2.5 C3,1.554 2.708,1 2,1 Z M2,-0.0003 C3.207,-0.0003 4,1.1177 4,2.4997 C4,3.8817 3.206,4.9997 2,4.9997 C0.794,4.9997 2.84217094e-14,3.881 2.84217094e-14,2.5 C2.84217094e-14,0.958803662 0.793,-0.0003 2,-0.0003 Z" transform="translate(5.2 4.5) scale(1.4)" fill="#548AF7"/>
</svg>
