<svg xmlns="http://www.w3.org/2000/svg" width="16" height="16" viewBox="0 0 16 16" fill="none">
  <!-- diamond -->
  <path fill="#45322B" d="M0.586274 6.58573L6.58597 0.586031C7.36702 -0.195018 8.63335 -0.195019 9.4144 0.58603L15.4141 6.58573C16.1951 7.36678 16.1951 8.63311 15.4141 9.41416L9.4144 15.4139C8.63335 16.1949 7.36702 16.1949 6.58597 15.4139L0.586275 9.41416C-0.194773 8.63311 -0.194774 7.36678 0.586274 6.58573Z"/>
  <path fill="#C77D55" fill-rule="evenodd" clip-rule="evenodd" d="M7.29308 1.29314L1.29338 7.29284C0.902857 7.68336 0.902858 8.31653 1.29338 8.70705L7.29308 14.7067C7.68361 15.0973 8.31677 15.0973 8.70729 14.7067L14.707 8.70705C15.0975 8.31652 15.0975 7.68336 14.707 7.29284L8.70729 1.29314C8.31677 0.902613 7.6836 0.902613 7.29308 1.29314ZM6.58597 0.586031L0.586274 6.58573C-0.194774 7.36678 -0.194773 8.63311 0.586275 9.41416L6.58597 15.4139C7.36702 16.1949 8.63335 16.1949 9.4144 15.4139L15.4141 9.41416C16.1951 8.63311 16.1951 7.36678 15.4141 6.58573L9.4144 0.58603C8.63335 -0.195019 7.36702 -0.195018 6.58597 0.586031Z"/>
  <!-- C -->
  <path fill="#C77D55" d="M8.13295 11.5C9.61223 11.5 10.8836 10.6105 11.2075 9.33909H10.2213C9.90229 10.0739 9.11914 10.6057 8.13295 10.6057C6.77936 10.6057 5.80284 9.51796 5.80284 8C5.80284 6.48204 6.77936 5.39434 8.13295 5.39434C9.11914 5.39434 9.90229 5.92611 10.2213 6.66091H11.2075C10.8836 5.3895 9.61223 4.5 8.13295 4.5C6.21859 4.5 4.79248 5.99378 4.79248 8C4.79248 10.0062 6.21859 11.5 8.13295 11.5Z"/>
</svg>
