<svg xmlns="http://www.w3.org/2000/svg" width="16" height="16" viewBox="0 0 16 16" fill="none">
  <!-- diamond -->
  <path fill="#45322B" d="M0.586274 6.58573L6.58597 0.586031C7.36702 -0.195018 8.63335 -0.195019 9.4144 0.58603L15.4141 6.58573C16.1951 7.36678 16.1951 8.63311 15.4141 9.41416L9.4144 15.4139C8.63335 16.1949 7.36702 16.1949 6.58597 15.4139L0.586275 9.41416C-0.194773 8.63311 -0.194774 7.36678 0.586274 6.58573Z"/>
  <path fill="#C77D55" fill-rule="evenodd" clip-rule="evenodd" d="M7.29308 1.29314L1.29338 7.29284C0.902857 7.68336 0.902858 8.31653 1.29338 8.70705L7.29308 14.7067C7.68361 15.0973 8.31677 15.0973 8.70729 14.7067L14.707 8.70705C15.0975 8.31652 15.0975 7.68336 14.707 7.29284L8.70729 1.29314C8.31677 0.902613 7.6836 0.902613 7.29308 1.29314ZM6.58597 0.586031L0.586274 6.58573C-0.194774 7.36678 -0.194773 8.63311 0.586275 9.41416L6.58597 15.4139C7.36702 16.1949 8.63335 16.1949 9.4144 15.4139L15.4141 9.41416C16.1951 8.63311 16.1951 7.36678 15.4141 6.58573L9.4144 0.58603C8.63335 -0.195019 7.36702 -0.195018 6.58597 0.586031Z"/>
  <!-- I -->
  <path fill="#C77D55" fill-rule="evenodd" clip-rule="evenodd" d="M10 4.5V5.5L8.5 5.5V10.5H10V11.5L8.5 11.5H7.5L6 11.5V10.5H7.5V5.5L6 5.5V4.5H7.5H8.5H10Z"/>
</svg>
