<svg xmlns="http://www.w3.org/2000/svg" width="16" height="16" viewBox="0 0 16 16" fill="none">
  <circle cx="8" cy="8" r="6.5" fill="#2F2936" stroke="#B589EC"/>
  <path fill-rule="evenodd" clip-rule="evenodd" d="M2 8C2 11.3137 4.68629 14 8 14C11.3137 14 14 11.3137 14 8C14 4.68629 11.3137 2 8 2C4.68629 2 2 4.68629 2 8ZM8 1C4.13401 1 1 4.13401 1 8C1 11.866 4.13401 15 8 15C11.866 15 15 11.866 15 8C15 4.13401 11.866 1 8 1Z" fill="#B589EC"/>
  <path fill-rule="evenodd" clip-rule="evenodd" d="M7.5 6H5V5H11V6H8.5V12H7.5V6Z" fill="#B589EC"/>
</svg>
