<svg xmlns="http://www.w3.org/2000/svg" width="16" height="16" viewBox="0 0 16 16">
  <g fill="none" fill-rule="evenodd">
    <polygon fill="#ddd" fill-opacity=".7" points="1 16 16 16 16 9 1 9"/>
    <polygon fill="#9AA7B0" fill-opacity=".8" points="7 1 3 5 7 5"/>
    <polygon fill="#9AA7B0" fill-opacity=".8" points="8 1 8 6 3 6 3 8 13 8 13 1"/>
    <polygon fill="#231F20" fill-opacity=".7" points="0 0 .936 0 2.5 2 3.979 0 5 0 5 5 4 5 4 1.7 2.5 3.5 1 1.7 1 5 0 5" transform="translate(1 10)"/>
    <path fill="#231F20" fill-opacity=".7" d="M2.4931694,5 C1.02459016,5 4.39648318e-14,3.87430939 4.39648318e-14,2.51381215 L4.39648318e-14,2.5 C4.39648318e-14,1.13950276 1.03825137,0 2.5068306,0 C3.97540984,0 5,1.12569061 5,2.48618785 L5,2.5 C5,3.86049724 3.96174863,5 2.4931694,5 Z M2.50632911,4.05 C3.38607595,4.05 4,3.3625 4,2.5125 L4,2.5 C4,1.65 3.37341772,0.95 2.49367089,0.95 C1.61392405,0.95 1,1.6375 1,2.4875 L1,2.5 C1,3.35 1.62658228,4.05 2.50632911,4.05 Z" transform="translate(6.25 10)"/>
    <path fill="#231F20" fill-opacity=".7" d="M1,1 L1,4 L1.649,4 C2.578,4 3,3.493 3,2.515 L3,2.5 C3,1.522 2.578,1 1.649,1 L1,1 Z M0,0 L1.649,0 C3.04,0 4,1.093 4,2.5 C4,3.921 3.04,5 1.649,5 L0,5 L0,0 Z" transform="translate(11.5 10)"/>
  </g>
</svg>
