<svg xmlns="http://www.w3.org/2000/svg" width="16" height="16" viewBox="0 0 16 16">
  <g fill="none" fill-rule="evenodd">
    <polygon fill="#999" fill-opacity=".7" points="1 16 16 16 16 9 1 9"/>
    <polygon fill="#9AA7B0" fill-opacity=".8" points="7 1 3 5 7 5"/>
    <polygon fill="#9AA7B0" fill-opacity=".8" points="8 1 8 6 3 6 3 8 13 8 13 1"/>

    <polygon fill="#231F20" fill-opacity=".7" points="2 1 .5 1 .5 0 4.5 0 4.5 1 3 1 3 5 2 5"  transform="translate(1 10)" />
    <polygon fill="#231F20" fill-opacity=".7" points="4.5 0 2.9 2.45 4.5 5 3.3 5 2.25 3.093 1.2 5 0 5 1.6 2.45 0 0 1.2 0 2.25 1.814 3.3 0" transform="translate(6.25 10)"/>
    <polygon fill="#231F20" fill-opacity=".7" points="2 1 .5 1 .5 0 4.5 0 4.5 1 3 1 3 5 2 5"  transform="translate(11 10)" />
  </g>
</svg>
