<svg xmlns="http://www.w3.org/2000/svg" width="16" height="16" viewBox="0 0 16 16">
    <g fill="none" fill-rule="evenodd">
      <path fill="#40B6E0" fill-opacity=".6" d="M9.5863,13.4999 L13.5003,9.5859 L14.5003,10.5869 C14.8193,9.7859 15.0003,8.9149 15.0003,7.9999 C15.0003,4.1339 11.8653,0.9999 8.0003,0.9999 C4.1343,0.9999 1.0003,4.1339 1.0003,7.9999 C1.0003,9.5639 1.5203,11.0049 2.3873,12.1699 C3.0513,12.4239 3.5763,12.9489 3.8293,13.6119 C4.9953,14.4799 6.4353,14.9999 8.0003,14.9999 C8.9143,14.9999 9.7853,14.8189 10.5863,14.5009 L9.5863,13.4999 Z"/>
      <path fill="#231F20" fill-opacity=".7" d="M3.15333333,6 C2.26166667,6 1.42,5.69166667 0.72,5.06666667 L1.33666667,4.33333333 C1.895,4.81666667 2.46166667,5.09166667 3.17833333,5.09166667 C3.81166667,5.09166667 4.21166667,4.79166667 4.21166667,4.35833333 L4.21166667,4.34166667 C4.21166667,3.925 3.97833333,3.7 2.895,3.45 C1.65333333,3.15 0.953333333,2.78333333 0.953333333,1.70833333 L0.953333333,1.69166667 C0.953333333,0.691666667 1.78666667,2.48689958e-14 2.945,2.48689958e-14 C3.795,2.48689958e-14 4.47,0.258333333 5.06166667,0.733333333 L4.51166667,1.50833333 C3.98666667,1.11666667 3.46166667,0.908333333 2.92833333,0.908333333 C2.32833333,0.908333333 1.97833333,1.21666667 1.97833333,1.6 L1.97833333,1.61666667 C1.97833333,2.06666667 2.245,2.26666667 3.37,2.53333333 C4.60333333,2.83333333 5.23666667,3.275 5.23666667,4.24166667 L5.23666667,4.25833333 C5.23666667,5.35 4.37833333,6 3.15333333,6 Z" transform="translate(5 5)"/>
      <polygon fill="#9AA7B0" points="13.5 16 11 13.5 13.5 11 16 13.5"/>
    </g>
</svg>
