<svg xmlns="http://www.w3.org/2000/svg" width="16" height="16" viewBox="0 0 16 16">
<g fill="none" fill-rule="evenodd">
  <path fill="#40B6E0" fill-opacity=".6" d="M9.5863,13.4999 L13.5003,9.5859 L14.5003,10.5869 C14.8193,9.7859 15.0003,8.9149 15.0003,7.9999 C15.0003,4.1339 11.8653,0.9999 8.0003,0.9999 C4.1343,0.9999 1.0003,4.1339 1.0003,7.9999 C1.0003,9.5639 1.5203,11.0049 2.3873,12.1699 C3.0513,12.4239 3.5763,12.9489 3.8293,13.6119 C4.9953,14.4799 6.4353,14.9999 8.0003,14.9999 C8.9143,14.9999 9.7853,14.8189 10.5863,14.5009 L9.5863,13.4999 Z"/>
  <polygon fill="#9AA7B0" points="13.5 16 11 13.5 13.5 11 16 13.5"/>
  <path fill="#231F20" fill-opacity=".7" d="M2.2939,6 L-0.0001,0 L1.2,0 C2.3886,3.13933333 2.98856667,4.73933333 2.9999,4.8 L4.8,0 L5.9999,0 L3.7059,6 L2.2939,6 Z" transform="translate(5 5)"/>
</g>
</svg>
